<?xml version="1.0" encoding="UTF-8" standalone="no" ?>
<!DOCTYPE svg PUBLIC "-//W3C//DTD SVG 1.1//EN" "http://www.w3.org/Graphics/SVG/1.1/DTD/svg11.dtd">
<svg xmlns="http://www.w3.org/2000/svg" xmlns:xlink="http://www.w3.org/1999/xlink" version="1.1" width="1080" height="1080" viewBox="0 0 1080 1080" xml:space="preserve">
<desc>Created with Fabric.js 5.2.4</desc>
<defs>
</defs>
<rect x="0" y="0" width="180" height="180" fill="transparent"></rect>
<g transform="matrix(1 0 0 1 540 540)" id="f778c237-5950-4c7b-a9c6-66530f7e746d"  >
<rect style="stroke: none; stroke-width: 1; stroke-dasharray: none; stroke-linecap: butt; stroke-dashoffset: 0; stroke-linejoin: miter; stroke-miterlimit: 4; fill: rgb(255,255,255); fill-rule: nonzero; opacity: 1; visibility: hidden;" vector-effect="non-scaling-stroke"  x="-540" y="-540" rx="0" ry="0" width="1080" height="1080" />
</g>
<g transform="matrix(1 0 0 1 540 540)" id="c6fb9584-dbc8-48a9-a578-933df659396f"  >
</g>
<g transform="matrix(1.31 0 0 1 112.31 36.78)" id="ad7ac5ed-668f-4d39-8fee-2c1833e34119"  >
<path style="stroke: rgb(0,0,0); stroke-width: 0; stroke-dasharray: none; stroke-linecap: butt; stroke-dashoffset: 0; stroke-linejoin: miter; stroke-miterlimit: 4; fill: rgb(227,172,120); fill-rule: nonzero; opacity: 1;" vector-effect="non-scaling-stroke"  transform=" translate(-78.5, -29)" d="M 3 29 C 3 14.6406 14.6406 3 29 3 L 128 3 C 142.359 3 154 14.6406 154 29 L 154 29 C 154 43.3594 142.359 55 128 55 L 29 55 C 14.6406 55 3 43.3594 3 29 L 3 29 Z" stroke-linecap="round" />
</g>
</svg>