<svg width="151" height="68" viewBox="0 0 151 68" fill="none" xmlns="http://www.w3.org/2000/svg">
<g clip-path="url(#clip0_501_106)">
<path d="M13.3997 62.4846V64.997H12.2092V62.4846H13.3997Z" fill="#212759"/>
<path d="M16.6191 62.4088C17.3113 62.4088 17.9125 62.8833 17.9125 63.8843V66.8474H15.9547V65.8305H16.7259V64.1116C16.7259 63.7926 16.6706 63.4337 16.2869 63.4337H16.2513C16.0219 63.4337 15.6502 63.673 15.2665 63.9362V66.8474H14.076V62.4885H15.2428L15.2705 62.9112C15.7332 62.6201 16.0536 62.4088 16.5796 62.4088H16.6231H16.6191Z" fill="#212759"/>
<path d="M21.0607 62.4845H22.2511V64.9092C22.2511 65.6351 21.8319 66.4048 20.9223 66.6241L18.4385 67.2183V66.1734L19.2928 65.9701L18.5374 62.4845H19.7595L20.4239 65.6989L20.4793 65.6829C20.9064 65.5832 21.0607 65.332 21.0607 64.8494V62.4805V62.4845Z" fill="#212759"/>
<path d="M23.05 62.4845H25.0711V65.5114C25.0711 66.3808 24.6004 66.8434 23.7422 66.8434H22.8246V65.8265H23.6156C23.7817 65.8265 23.8806 65.7507 23.8806 65.4596V63.4975H23.05V62.4805V62.4845Z" fill="#212759"/>
<path d="M29.5799 66.8435H28.334L29.3782 63.5015H27.4204V61.4197H28.6227V62.4845H30.9365L29.5799 66.8435Z" fill="#212759"/>
<path d="M33.8473 62.4846C34.7135 62.4846 35.2316 63.0708 35.2316 64.1197V66.8435H34.0411V64.2552C34.0411 63.7328 33.9066 63.5015 33.4795 63.5015H32.6806V66.8435H31.4901V62.4846H33.8394H33.8473Z" fill="#212759"/>
<path d="M35.8288 62.4846H37.6046C38.4866 62.4846 39.0601 63.0987 39.0601 64.1914V66.8435H37.8696V64.2552C37.8696 63.7328 37.7035 63.5015 37.1695 63.5015H35.8248V62.4846H35.8288Z" fill="#212759"/>
<path d="M42.7185 62.4846V68H41.4727V62.4846H42.7185Z" fill="#212759"/>
<path d="M46.3928 65.8265H46.8911V66.8434H43.387V65.8265H45.2063V63.4975H43.387V62.4805H46.3928V65.8225V65.8265Z" fill="#212759"/>
<path d="M49.3867 61.8664H50.3873V61.9781L49.6596 63.7487H48.8844L49.3867 61.8664Z" fill="#212759"/>
<path d="M51.9338 62.4846V64.997H50.7433V62.4846H51.9338Z" fill="#212759"/>
<path d="M53.7531 62.4846V64.6939C53.7531 65.4118 54.1644 65.9222 54.9475 65.9222H55.0385C55.8216 65.9222 56.2329 65.4158 56.2329 64.6939V62.4846H57.4155V64.6939C57.4155 65.9302 56.5849 66.9432 55.0385 66.9432H54.9475C53.4011 66.9432 52.5706 65.9262 52.5706 64.6939V62.4846H53.7531ZM55.5368 62.4846V65.1207H54.4334V62.4846H55.5368Z" fill="#212759"/>
<path d="M61.0384 62.4846V66.8435H59.8479V62.4846H61.0384Z" fill="#212759"/>
<path d="M61.7028 63.5015V62.4846H65.2702V66.8435H64.0797V63.5015H61.7028ZM61.7502 64.4467L62.9684 64.4546V66.8475H61.7502V64.4507V64.4467Z" fill="#212759"/>
<path d="M67.1331 62.4846V64.997H65.9426V62.4846H67.1331Z" fill="#212759"/>
<path d="M69.8977 66.8435H68.6518L69.692 63.5015H67.7343V61.4197H68.9366V62.4845H71.2503L69.8937 66.8435H69.8977Z" fill="#212759"/>
<path d="M75.6799 66.8435H74.2956L73.1961 64.9173L73.1407 64.9532C72.9509 65.0808 72.8599 65.2283 72.8599 65.5195V66.8435H71.7762V65.5195C71.7762 64.997 71.9147 64.5823 72.2785 64.3191L72.6226 64.0718L72.6147 64.0558L71.6971 62.4846H73.0695L74.1058 64.2632L74.2046 64.1914C74.3866 64.0558 74.5052 63.9242 74.5052 63.5932V62.4846H75.5889V63.6132C75.5889 64.0838 75.4149 64.5225 74.9442 64.8893L74.6634 65.1087L75.6759 66.8435H75.6799Z" fill="#212759"/>
<path d="M78.1677 61.8664H79.1683V61.9781L78.4406 63.7487H77.6654L78.1677 61.8664Z" fill="#212759"/>
<path d="M79.4808 62.4846H81.2566C82.1386 62.4846 82.712 63.0987 82.712 64.1914V66.8435H81.5216V64.2552C81.5216 63.7328 81.3555 63.5015 80.8215 63.5015H79.4768V62.4846H79.4808Z" fill="#212759"/>
<path d="M87.4779 62.4846C88.344 62.4846 88.8622 63.0708 88.8622 64.1197V66.8435H87.6717V64.2552C87.6717 63.7328 87.5372 63.5015 87.114 63.5015H86.3151V66.8435H85.1246V62.4846H87.4739H87.4779Z" fill="#212759"/>
<path d="M89.6927 61.8664H90.6934V61.9781L89.9656 63.7487H89.1904L89.6927 61.8664ZM91.0216 61.8664H92.0222V61.9781L91.2945 63.7487H90.5193L91.0216 61.8664Z" fill="#212759"/>
<path d="M92.3979 63.5015V62.4846H95.9654V66.8435H94.7749V63.5015H92.3979ZM92.4454 64.4467L93.6636 64.4546V66.8475H92.4454V64.4507V64.4467Z" fill="#212759"/>
<path d="M96.5982 62.4846H98.374C99.256 62.4846 99.8295 63.0987 99.8295 64.1914V66.8435H98.639V64.2552C98.639 63.7328 98.4729 63.5015 97.939 63.5015H96.5942V62.4846H96.5982Z" fill="#212759"/>
<path d="M100.458 63.5015V62.4846H104.026V66.8435H102.835V63.5015H100.458ZM100.506 64.4467L101.724 64.4546V66.8475H100.506V64.4507V64.4467Z" fill="#212759"/>
<path d="M110.037 62.4846V63.5015H109.393V66.8435H108.202V63.5015H106.407V62.4846H110.037Z" fill="#212759"/>
<path d="M111.829 62.4846V64.997H110.639V62.4846H111.829Z" fill="#212759"/>
<path d="M115.001 66.8434H113.917L113.763 65.9182L113.637 65.9661C113.427 66.0498 113.324 66.2572 113.289 66.5005L113.245 66.8395H112.134L112.205 66.3449C112.304 65.667 112.672 65.3081 113.162 65.1445L113.589 65.005L113.399 63.4975H112.525V62.4805H114.475L115.001 66.8395V66.8434Z" fill="#212759"/>
<path d="M115.733 62.4845H117.754V65.5114C117.754 66.3808 117.287 66.8434 116.425 66.8434H115.507V65.8265H116.298C116.464 65.8265 116.563 65.7507 116.563 65.4596V63.4975H115.733V62.4805V62.4845Z" fill="#212759"/>
<path d="M118.387 63.5015V62.4846H121.954V66.8435H120.764V63.5015H118.387ZM118.434 64.4467L119.652 64.4546V66.8475H118.434V64.4507V64.4467Z" fill="#212759"/>
<path d="M124.821 62.4846H128.464V63.9242L128.472 66.8435H127.278V63.5015H126.012V65.5673C126.012 66.3091 125.628 66.8435 124.857 66.8435H124.228V65.8225H124.556C124.746 65.8225 124.821 65.7308 124.821 65.4915V62.4886V62.4846Z" fill="#212759"/>
<path d="M130.37 62.4846V66.8435H129.18V62.4846H130.37Z" fill="#212759"/>
<path d="M131.039 62.4846H132.443C133.645 62.4846 134.329 63.3859 134.329 64.5663V64.674C134.329 65.8505 133.645 66.8475 132.443 66.8475H131.039V65.8305H132.293C132.846 65.8305 133.139 65.2961 133.139 64.6461V64.5703C133.139 63.9442 132.846 63.5055 132.293 63.5055H131.039V62.4886V62.4846Z" fill="#212759"/>
<path d="M134.824 62.4846H137.454V63.5015H137.054C136.706 63.5015 136.544 63.988 136.544 64.5663C136.544 64.7218 136.56 64.8854 136.58 65.0449L136.833 66.8435H135.631L135.413 65.2642C135.377 64.997 135.35 64.7498 135.35 64.5224C135.35 64.1077 135.441 63.7687 135.749 63.5015H134.828V62.4846H134.824Z" fill="#212759"/>
<path d="M140.175 66.8435H138.929L139.969 63.5015H138.012V61.4197H139.214V62.4845H141.528L140.171 66.8435H140.175Z" fill="#212759"/>
<path d="M71.5272 6.34895H70.3169L71.6023 2.25324H69.1462V0H70.3169V1.24826H73.1329L71.5272 6.35294V6.34895Z" fill="#212759"/>
<path d="M76.202 6.34895H74.9917L76.2771 2.25324H73.821V0H74.9917V1.24826H77.8077L76.202 6.35294V6.34895Z" fill="#212759"/>
<path d="M79.8051 1.24823V6.35292H78.6423V1.24823H79.8051Z" fill="#212759"/>
<path d="M80.7385 1.24823H82.3126C83.7127 1.24823 84.5235 2.28113 84.5235 3.70885V3.80855C84.5235 5.23627 83.7127 6.35292 82.3126 6.35292H80.7385V5.34394H82.1703C82.9415 5.34394 83.3489 4.658 83.3489 3.78462V3.70885C83.3489 2.84344 82.9375 2.2572 82.1703 2.2572H80.7385V1.24823Z" fill="#212759"/>
<path d="M96.5666 9.98205C94.154 9.84646 91.7414 9.7986 89.317 9.91824C86.0422 10.0778 82.803 10.4806 79.8644 12.1396C79.4412 12.3789 79.0734 12.678 78.5039 12.5862C77.6535 12.4467 77.1473 11.9162 76.7676 11.2343C76.5105 10.7677 76.3958 10.8554 76.202 11.2542C76.0003 11.669 75.676 11.992 75.3042 12.2632C74.7545 12.666 74.1691 12.7617 73.5759 12.3988C70.4276 10.4646 66.9037 10.0778 63.3362 9.92223C61.4457 9.84247 59.5394 9.78265 57.6568 9.92223C56.494 10.01 55.3352 10.0818 54.1724 10.1535C53.8322 10.1974 53.4921 10.2413 53.152 10.2812C51.0953 10.5204 49.0427 10.8116 46.9939 11.1107C45.8233 11.2822 44.6644 11.5135 43.3988 11.7368C43.735 11.9083 43.9802 11.8485 44.2096 11.8325C45.4159 11.7288 46.6301 11.6451 47.8285 11.4895C51.0756 11.0748 54.3424 10.9671 57.6014 10.7198C59.484 10.5763 61.3903 10.6361 63.2809 10.7198C66.8444 10.8714 70.3683 11.2622 73.5205 13.1964C74.1138 13.5593 74.7031 13.4636 75.2488 13.0608C75.6206 12.7896 75.9449 12.4666 76.1466 12.0518C76.3404 11.653 76.4512 11.5653 76.7122 12.0319C77.088 12.7139 77.5982 13.2443 78.4485 13.3838C79.018 13.4756 79.3858 13.1765 79.809 12.9372C82.7476 11.2782 85.9868 10.8794 89.2616 10.7159C95.1625 10.4247 101.012 11.1226 106.873 11.657C107.664 11.7288 108.448 11.9162 109.266 11.7248C106.688 11.334 104.113 10.9113 101.53 10.5563C99.8809 10.329 98.2198 10.1615 96.5626 9.98205H96.5666Z" fill="url(#paint0_linear_501_106)"/>
<path d="M3.2708 56.7218C3.8166 56.5743 4.35449 56.4028 4.90424 56.2792C7.98127 55.5693 11.0543 54.8514 14.1393 54.1775C15.8439 53.8066 17.5723 53.5553 19.2729 53.1765C21.0765 52.7737 22.8958 52.4706 24.7151 52.1476C27.5232 51.6451 30.3352 51.1466 33.171 50.7956C35.1644 50.5484 37.1458 50.1894 39.1431 49.9382C41.1602 49.6869 43.1931 49.5434 45.2141 49.2841C48.3347 48.8853 51.475 48.6859 54.6074 48.4387C58.7523 48.1117 62.913 47.8963 67.054 48.4746C69.4784 48.8096 71.8712 49.332 73.9397 50.7757C74.6318 51.2582 75.2014 50.8674 75.7472 50.5523C76.2257 50.2732 76.5856 49.8225 76.8348 49.2363C77.1631 49.8465 77.5388 50.3769 78.136 50.676C78.7926 51.007 79.3779 51.0828 80.0819 50.5962C81.3159 49.7388 82.7318 49.2802 84.211 48.9492C87.2643 48.2672 90.3492 48.0678 93.4539 48.1396C95.7953 48.1954 98.1367 48.3509 100.474 48.5783C102.582 48.7856 104.706 48.8614 106.81 49.1007C110.504 49.5194 114.202 49.9302 117.888 50.4287C121.57 50.9272 125.249 51.4816 128.907 52.1117C133.436 52.8933 137.944 53.8066 142.425 54.8514C144.885 55.4257 147.345 55.988 149.809 56.5543C150.023 56.6022 150.233 56.6381 150.375 56.8694C149.541 56.7139 148.706 56.6979 147.872 56.6142C144.593 56.2792 141.413 55.4138 138.193 54.7557C133.708 53.8425 129.212 52.9771 124.695 52.2353C122.306 51.8445 119.893 51.5852 117.501 51.2104C112.968 50.5005 108.404 50.1176 103.84 49.6869C99.6357 49.2881 95.4315 48.9492 91.2114 49.001C88.5813 49.0329 85.9512 49.2602 83.3923 49.9621C82.2018 50.2891 81.0153 50.672 80.0265 51.4138C79.0022 52.1834 77.8275 51.5494 77.345 50.7597C77.2896 50.672 77.2343 50.5882 77.1749 50.5005C76.9297 50.1176 76.6806 50.0977 76.463 50.5164C76.2178 50.995 75.8421 51.326 75.3873 51.5892C74.8929 51.8724 74.4143 51.8883 73.9357 51.5773C71.5153 50.0219 68.7902 49.4955 65.994 49.2283C61.9836 48.8495 57.9771 49.0169 53.9706 49.344C49.9325 49.675 45.8905 49.9701 41.8642 50.4447C38.9691 50.7876 36.074 51.1625 33.1868 51.5932C30.4222 52.004 27.6695 52.4786 24.9168 52.9571C22.4291 53.3918 19.9414 53.8385 17.4655 54.337C14.9105 54.8514 12.3635 55.4138 9.82432 56.004C8.15134 56.3908 6.45066 56.4905 4.7579 56.682C4.27143 56.7378 3.78496 56.8335 3.29849 56.9093C3.28662 56.8455 3.27871 56.7856 3.26685 56.7218H3.2708Z" fill="url(#paint1_linear_501_106)"/>
<path d="M80.4102 52.3549C81.2447 51.7288 82.1939 51.3739 83.1708 51.0788C86.4733 50.0778 89.8667 50.0937 93.2601 50.1536C95.2535 50.1894 97.2508 50.1336 99.2441 50.3211C101.68 50.5484 104.121 50.7199 106.553 50.9711C109.927 51.3181 113.304 51.669 116.666 52.0997C119.538 52.4706 122.393 52.9332 125.253 53.3998C127.701 53.7986 130.137 54.2612 132.581 54.6919C132.739 54.7199 132.906 54.7278 133.099 54.9671C115.523 53.3958 98.0022 52.4148 80.4141 52.351L80.4102 52.3549Z" fill="url(#paint2_linear_501_106)"/>
<path d="M73.2555 52.4028C55.695 52.4666 38.1742 53.3559 20.677 54.8674C22.5517 54.4606 24.4145 54.0339 26.305 53.7627C28.6623 53.4237 30.9957 52.9332 33.353 52.6301C36.8571 52.1795 40.3534 51.657 43.8734 51.3101C48.663 50.8395 53.4446 50.3051 58.254 50.1775C61.1095 50.1017 63.973 50.0977 66.8285 50.337C68.4936 50.4766 70.0994 50.9312 71.6774 51.4616C72.2311 51.6491 72.7374 51.9801 73.2674 52.2433C73.2634 52.2951 73.2555 52.347 73.2515 52.4028H73.2555Z" fill="url(#paint3_linear_501_106)"/>
<path d="M8.81182 44.8814C8.5943 36.2034 8.59825 33.3799 5.05057 33.5553L2.36509 33.6949C1.0876 33.7468 0.553672 33.2283 0.407335 31.9681L0.00391928 28.4507C-0.0435414 27.7926 0.272863 27.1745 0.921492 27.1306C1.67691 28.0758 2.03682 27.8684 3.41318 27.7886C5.33533 27.661 6.35969 28.3151 7.00832 30.4925L10.8922 43.4736C11.2323 44.678 11.6001 46.4766 11.5566 47.0548L10.1012 47.4736L8.81182 44.8854V44.8814Z" fill="#212759"/>
<path d="M26.0202 41.3201L24.2286 32.5903C23.663 29.8345 23.1647 29.4198 21.5866 29.7508L11.0859 31.9442C10.1328 32.1436 9.42085 31.7049 9.34966 30.68L9.01744 25.7308C8.96206 25.1207 9.57114 24.5783 10.0655 24.6461C10.7458 25.7867 11.4617 26.0858 13.368 25.687L22.9155 23.693C23.9359 23.4816 24.5331 23.8764 24.7348 24.8694L25.5654 28.9173C24.8812 29.9263 24.4145 31.5095 24.9088 33.9023C25.1936 35.2981 26.3564 38.6202 28.7611 40.9572L28.4526 43.3061L26.74 43.665C26.4078 43.0429 26.2298 42.353 26.0202 41.3241V41.3201ZM13.8822 35.2024L14.159 35.3859C12.4979 38.329 14.3449 40.2991 17.3389 43.342L16.7337 45.7508L13.9375 46.333C11.8888 41.8784 11.5368 38.3211 13.8822 35.1984V35.2024Z" fill="#212759"/>
<path d="M33.1907 34.3769C33.9857 30.0139 33.6456 28.5902 30.9996 28.1555L28.8441 27.8205C27.6932 27.6132 26.9497 27.4137 27.1514 25.9781L27.7723 22.0498C27.8712 21.316 28.3933 20.9292 28.8837 21.0289C29.2278 22.006 29.8092 22.0219 31.8974 22.3689C36.2717 23.0269 35.5084 27.6291 33.6021 34.4167L33.1868 34.3729L33.1907 34.3769Z" fill="#212759"/>
<path d="M41.7653 36.7298C47.2154 35.0828 49.4065 33.6112 50.0789 30.349C50.7868 26.7717 48.9715 26.1296 46.46 26.3729L39.4675 27.0429C37.5255 27.2303 37.2052 25.9661 36.8057 23.8923C36.3232 21.659 36.6396 18.9352 37.8419 17.3559C39.7404 14.9272 44.1463 15.1147 46.5035 15.7408L46.9781 17.9103L44.8424 18.5563C43.0468 16.7178 39.9856 15.3779 38.3047 17.6191C37.1696 19.1904 37.8933 21.5075 40.6737 21.2403L46.4284 20.6859C49.7743 20.3629 50.5614 21.8903 50.8264 24.7258C51.1744 28.4028 49.7743 36.1316 46.4323 41.1167L42.3507 41.5075L41.7653 36.7298Z" fill="#212759"/>
<path d="M66.0257 28.5782C65.6223 29.6431 65.6104 30.2891 66.6506 31.3061L69.3242 33.9661C70.9181 35.4736 70.9695 37.1007 68.4897 40.6062C65.0685 36.6819 61.6988 33.1924 57.8071 29.316L57.5974 29.0847C57.0437 28.5942 56.6403 28.5384 56.2804 28.8574C55.8533 29.1765 55.434 29.7667 56.4268 31.3978L58.9778 35.5214C59.9705 37.1525 60.3502 38.5643 59.4959 40.2512L52.7406 40.4666L52.6932 40.0598L53.326 39.8365C53.8916 39.649 54.0893 39.4736 53.8204 38.4965L52.8633 34.8315C52.096 31.8046 52.6655 30.6999 56.4821 28.0359L54.1565 25.7348C52.7683 24.3549 52.1751 23.661 52.8909 21.8425L53.8243 19.4058C54.0735 18.7517 54.6668 18.4287 55.4459 18.5723C55.6476 19.6849 55.9719 20.2831 56.9093 21.2722L64.1787 28.8375C64.8392 29.4596 65.5511 28.5902 65.9822 27.3539C66.3816 26.2213 66.1641 25.6869 64.6374 25.2283C63.3125 24.8295 62.2605 24.4586 62.7074 22.7118L63.6961 18.9152C63.8781 18.2652 64.2696 17.8464 64.9815 18.0259C65.2149 19.0349 65.6578 19.2582 66.7771 19.5294L69.0157 20.1356C69.9293 20.343 70.4237 21.0728 70.0677 22.5443L69.3519 25.4835C67.7184 25.9103 66.6703 26.8913 66.0178 28.5743L66.0257 28.5782Z" fill="#212759"/>
<path d="M95.0597 38.6361L94.1856 40.8335L92.473 40.7538C92.2199 39.689 92.299 38.6401 92.4137 36.1356L92.6827 30.2453C92.8488 26.6202 92.738 26.0738 90.6221 25.9741L85.081 25.7189C82.36 25.5952 80.9006 26.6441 80.7938 28.9492C80.7068 30.8794 82.0871 33.0808 83.8036 36.0798C84.9901 38.1376 84.6776 39.1067 84.4403 39.8405L77.9264 40.997L77.4518 36.6301C77.3885 35.8126 77.5823 35.2104 78.397 35.0788L80.9085 34.6162C80.3231 31.9083 80.1966 29.5274 80.6079 27.9163C81.0548 26.2054 81.13 26.0738 80.1649 25.7907C78.571 25.3081 78.1162 24.9492 78.3812 23.5693L79.1999 18.9233C79.3264 18.3171 80.0502 17.9462 80.513 18.1336C80.8927 19.4058 81.5096 19.8764 83.4595 19.9681L93.6714 20.4387C94.5771 20.4786 95.1546 21.1167 95.115 22.0339L94.9291 26.1655C92.2357 28.4148 92.6075 34.337 95.0715 38.6281L95.0597 38.6361Z" fill="#212759"/>
<path d="M96.4597 36.5703C96.5903 35.8684 97.2784 35.3499 97.9824 35.4137L106.719 36.2114C109.199 36.4387 109.511 36.331 109.749 32.5384C110.006 28.5463 109.464 27.4417 106.181 27.1426L98.7141 26.4606C97.7451 26.3729 97.2033 25.6431 97.4169 24.7418L98.5599 19.9122C98.7181 19.2782 99.4221 18.9711 99.8729 19.1824C100.197 20.4706 100.992 20.985 102.199 21.0967L109.163 21.7308C111.24 21.9182 111.916 23.4098 111.556 25.5234L110.117 34.0379C109.82 35.8484 109.856 36.1914 112.229 36.8494L111.398 41.2004C111.22 42.0698 110.828 42.3051 109.923 42.2213L95.558 40.9132L96.4518 36.5703H96.4597Z" fill="#212759"/>
<path d="M117.125 32.1236L117.323 32.3948C114.756 34.5763 115.812 37.0688 117.58 40.9691L116.188 43.0189L113.364 42.5922C112.968 37.6989 113.858 34.2333 117.129 32.1236H117.125ZM126.419 42.0977L127.728 33.2801C128.144 30.4965 127.819 29.9342 126.222 29.6949L115.618 28.0917C114.653 27.9442 114.139 27.2861 114.424 26.3011L115.812 21.5394C115.97 20.9452 116.725 20.65 117.164 20.8853C117.414 22.1894 117.979 22.7238 119.909 23.0149L129.552 24.4706C130.584 24.6261 131.007 25.2044 130.857 26.2094L130.248 30.2971C129.259 31.003 128.282 32.331 127.922 34.7438C127.713 36.1515 127.665 39.677 129.117 42.7039L128.025 44.8016L126.297 44.5424C126.198 43.8405 126.269 43.1346 126.423 42.0937L126.419 42.0977Z" fill="#212759"/>
<path d="M145.059 37.0608C144.387 37.9741 144.201 38.5922 144.929 39.8565L146.792 43.1466C147.923 45.0329 147.535 46.6122 144.209 49.3121C141.971 44.6022 139.657 40.3231 136.952 35.5334L136.813 35.2543C136.414 34.6321 136.038 34.4686 135.607 34.676C135.109 34.8674 134.551 35.3221 135.069 37.1605L136.422 41.8265C136.94 43.665 136.928 45.1286 135.654 46.5245L129.093 44.8933L129.156 44.4906L129.825 44.4467C130.418 44.4188 130.655 44.3031 130.659 43.2941L130.722 39.5055C130.794 36.3829 131.64 35.4736 136.03 33.9462L134.408 31.0987C133.44 29.3918 133.056 28.5623 134.234 27.007L135.785 24.9133C136.2 24.351 136.857 24.2034 137.569 24.5544C137.466 25.679 137.616 26.345 138.253 27.5534L143.224 36.8176C143.691 37.5952 144.613 36.9532 145.356 35.8804C146.048 34.8993 145.981 34.325 144.632 33.4676C143.466 32.7219 142.548 32.0758 143.45 30.5205L145.419 27.1346C145.767 26.5564 146.258 26.2612 146.895 26.6281C146.847 27.665 147.219 28 148.22 28.5623L150.213 29.7548C151.039 30.2054 151.316 31.0429 150.581 32.3589L149.105 34.995C147.417 34.9591 146.147 35.6212 145.067 37.0648L145.059 37.0608Z" fill="#212759"/>
</g>
<defs>
<linearGradient id="paint0_linear_501_106" x1="52.2067" y1="-26.68" x2="101.353" y2="50.2751" gradientUnits="userSpaceOnUse">
<stop stop-color="#C49957"/>
<stop offset="0.28" stop-color="#9F733A"/>
<stop offset="0.41" stop-color="#C69A5B"/>
<stop offset="0.55" stop-color="#EDC07B"/>
<stop offset="0.63" stop-color="#FCCF88"/>
<stop offset="0.71" stop-color="#EABD79"/>
<stop offset="0.88" stop-color="#BC8F52"/>
<stop offset="1" stop-color="#9F733A"/>
</linearGradient>
<linearGradient id="paint1_linear_501_106" x1="28.504" y1="-20.0598" x2="77.6499" y2="56.8952" gradientUnits="userSpaceOnUse">
<stop stop-color="#C49957"/>
<stop offset="0.28" stop-color="#9F733A"/>
<stop offset="0.41" stop-color="#C69A5B"/>
<stop offset="0.55" stop-color="#EDC07B"/>
<stop offset="0.63" stop-color="#FCCF88"/>
<stop offset="0.71" stop-color="#EABD79"/>
<stop offset="0.88" stop-color="#BC8F52"/>
<stop offset="1" stop-color="#9F733A"/>
</linearGradient>
<linearGradient id="paint2_linear_501_106" x1="51.3049" y1="-34.6201" x2="100.451" y2="42.3349" gradientUnits="userSpaceOnUse">
<stop stop-color="#C49957"/>
<stop offset="0.28" stop-color="#9F733A"/>
<stop offset="0.41" stop-color="#C69A5B"/>
<stop offset="0.55" stop-color="#EDC07B"/>
<stop offset="0.63" stop-color="#FCCF88"/>
<stop offset="0.71" stop-color="#EABD79"/>
<stop offset="0.88" stop-color="#BC8F52"/>
<stop offset="1" stop-color="#9F733A"/>
</linearGradient>
<linearGradient id="paint3_linear_501_106" x1="8.68528" y1="-7.40578" x2="57.8311" y2="69.5493" gradientUnits="userSpaceOnUse">
<stop stop-color="#C49957"/>
<stop offset="0.28" stop-color="#9F733A"/>
<stop offset="0.41" stop-color="#C69A5B"/>
<stop offset="0.55" stop-color="#EDC07B"/>
<stop offset="0.63" stop-color="#FCCF88"/>
<stop offset="0.71" stop-color="#EABD79"/>
<stop offset="0.88" stop-color="#BC8F52"/>
<stop offset="1" stop-color="#9F733A"/>
</linearGradient>
<clipPath id="clip0_501_106">
<rect width="151" height="68" fill="white"/>
</clipPath>
</defs>
</svg>
