<svg width="161" height="139" viewBox="0 0 161 139" fill="none" xmlns="http://www.w3.org/2000/svg">
<g clip-path="url(#clip0_1_894)">
<path d="M44.8185 57.9986V62.6611C44.8185 63.6549 44.0511 64.4206 43.0586 64.4206H36.0123V108.439C36.0123 109.432 35.245 110.198 34.2525 110.198H29.198C28.2021 110.198 27.4347 109.432 27.4347 108.439V64.4172H1.92698C0.931085 64.4172 0.167114 63.6515 0.167114 62.6577V57.9952C0.167114 57.0015 0.934495 56.2391 1.92698 56.2391H43.0552C44.0511 56.2391 44.8151 57.0049 44.8151 57.9952L44.8185 57.9986Z" fill="#E3AC77"/>
<path d="M152.422 75.5731V106.907C153.132 107.057 153.838 107.2 154.544 107.326C154.643 107.339 154.796 107.363 154.956 107.39C155.199 107.431 155.444 107.479 155.693 107.489C155.778 107.492 155.867 107.496 155.956 107.499C155.85 107.312 155.775 107.111 155.727 106.9C155.598 106.38 155.645 105.502 156.256 104.892L156.409 104.756C157.313 104.062 158.422 104.406 158.899 104.552C159.615 104.729 160.383 105.103 161 105.651V74.0417C161 64.1824 155.564 56.2357 144.916 56.2357H118.108C117.113 56.2357 116.349 57.0015 116.349 57.9918V108.432C116.349 109.426 117.116 110.191 118.108 110.191H123.163C124.159 110.191 124.923 109.426 124.923 108.432V64.4172H143.456C148.664 64.4172 152.416 68.6985 152.416 75.5766L152.422 75.5731Z" fill="#E3AC77"/>
<path d="M108.259 79.2078C107.137 79.2078 106.015 79.1942 104.892 79.2147C104.357 79.2215 104.217 79.0513 104.296 78.4932C104.729 75.4745 104.623 72.5034 103.498 69.6106C101.69 64.9719 97.4608 63.3622 93.0714 64.8971C89.1799 66.2618 86.0524 68.7053 83.3717 71.7853C82.7919 72.4523 82.2155 73.4325 81.4925 73.589C80.6501 73.7694 80.1658 72.5885 79.6133 71.9521C77.7306 69.791 75.6092 67.9362 73.1536 66.4626C71.3972 65.4076 69.5486 64.5636 67.475 64.3491C63.6347 63.9544 60.6743 66.0099 59.3032 69.5562C58.1777 72.466 58.0174 75.4676 58.4881 78.517C58.5734 79.0615 58.3551 79.1874 57.9083 79.184C55.6368 79.1568 53.3654 79.1194 51.094 79.0989C50.7017 79.0955 50.5278 78.9492 50.4903 78.551C49.9719 73.133 50.6301 67.9362 53.686 63.2975C56.4418 59.1149 60.398 56.8381 65.4457 56.4944C70.0977 56.1779 74.1836 57.7025 78.0069 60.1801C78.9721 60.8063 79.9236 61.4496 80.807 62.1779C81.281 62.5692 81.6221 62.508 82.0723 62.1438C84.5893 60.1189 87.328 58.4581 90.4077 57.4405C98.5693 54.7451 106.925 57.6991 110.551 65.9861C112.29 69.9646 112.754 74.1404 112.321 78.4353C112.266 78.99 112.051 79.2453 111.451 79.2215C110.387 79.1806 109.323 79.2113 108.259 79.2113V79.2078Z" fill="#26C3EA"/>
<path d="M55.8586 83.758C57.0079 83.758 58.1607 83.7682 59.3101 83.7512C59.7091 83.7444 59.8728 83.8737 60.0365 84.2719C61.1927 87.0796 62.6525 89.7206 64.5487 92.1097C66.1995 94.1925 67.8365 96.2821 69.8556 98.0382C72.5397 100.369 75.4421 102.306 78.9653 103.123C81.2401 103.647 83.4502 103.371 85.6296 102.561C89.9712 100.941 93.2863 97.9769 96.274 94.577C98.999 91.4733 101.233 88.0496 102.778 84.2039C102.911 83.8703 103.112 83.7819 103.429 83.7853C105.79 83.7955 108.146 83.8125 110.506 83.7955C111.212 83.7887 111.188 84.18 111.035 84.6293C110.124 87.3076 109.009 89.8975 107.553 92.3309C105.247 96.1902 102.553 99.75 99.2855 102.854C95.9875 105.985 92.3382 108.612 87.9965 110.099C83.9379 111.491 79.8247 111.682 75.6604 110.368C69.8965 108.547 65.3468 105.001 61.336 100.631C58.836 97.9088 56.7078 94.9208 54.8797 91.7217C53.5871 89.4619 52.5503 87.083 51.7488 84.6054C51.5681 84.0507 51.6533 83.6968 52.4105 83.7376C53.5564 83.8023 54.7092 83.7546 55.862 83.7546L55.8586 83.758Z" fill="#E3AC77"/>
<path d="M88.6854 91.572C88.8696 95.6729 85.2202 98.9877 81.3765 98.9094C77.2292 98.8243 74.0403 95.7273 74.0335 91.5788C74.0267 87.5084 77.2497 84.3162 81.3322 84.2821C85.4624 84.2481 88.8355 87.6207 88.6888 91.5685L88.6854 91.572Z" fill="#E3AC77"/>
<path d="M61.9361 21.604C61.81 21.0527 61.4177 20.7226 60.8652 20.8485L58.6961 21.3454C58.6961 21.3454 58.6961 21.3351 58.6927 21.3283L48.2392 23.7208C47.6867 23.8468 47.3559 24.2381 47.4821 24.7895L48.3893 28.7373C48.5155 29.2886 49.0066 29.5949 49.5591 29.469L57.2739 27.7027L59.3236 36.6158L49.8559 38.7837C45.0981 39.8728 41.1384 38.2494 39.7844 32.3515L37.1412 20.8553C35.7053 14.6069 38.693 11.0811 43.2018 10.0499L57.5297 6.77252C58.0822 6.6466 58.3789 6.10548 58.2629 5.6052L57.4922 2.25638C57.366 1.70505 56.8748 1.39875 56.3223 1.52127L41.3942 4.93816C33.5294 6.73849 29.4094 14.0487 31.2477 22.043L33.9796 33.9409C36.1862 43.5381 42.356 46.0736 50.422 44.229L65.4525 40.7917C66.005 40.6657 66.213 40.1961 66.0868 39.6482L61.943 21.6006L61.9361 21.604Z" fill="#26C3EA"/>
<path d="M98.3611 0.602383L74.8793 2.93637e-06C74.3131 -0.0136102 73.8936 0.384573 73.88 0.949517L72.8943 39.301C72.8773 39.8626 73.2797 40.2846 73.8459 40.2982L97.3277 40.9006C97.8905 40.9142 98.3134 40.516 98.327 39.9511L98.4157 36.6158C98.4294 36.1054 98.0303 35.6323 97.4642 35.6187L78.7094 35.1388L79.03 22.6794L97.4232 23.1491C97.9894 23.1627 98.4123 22.7645 98.4259 22.1996L98.5044 19.123C98.518 18.6091 98.119 18.1361 97.5528 18.1224L79.1596 17.6528L79.4767 5.34655L98.2315 5.82641C98.7977 5.84002 99.2172 5.44184 99.2343 4.8769L99.3195 1.59274C99.3332 1.08224 98.9341 0.609189 98.368 0.595576L98.3611 0.602383Z" fill="#26C3EA"/>
<path d="M139.943 9.65169L112.969 2.52523C112.423 2.37889 111.905 2.72262 111.775 3.2195L110.881 6.58875C110.738 7.13327 111.028 7.63695 111.574 7.77989L122.106 10.5638L113.412 43.3305C113.269 43.875 113.559 44.3787 114.108 44.5217L118.132 45.5835C118.678 45.7264 119.08 45.4099 119.227 44.8654L127.921 12.0986L138.551 14.9064C139.097 15.0527 139.602 14.76 139.745 14.2155L140.639 10.8462C140.768 10.3494 140.492 9.79803 139.943 9.6551V9.65169Z" fill="#26C3EA"/>
<path d="M0.958393 126.561C1.41541 126.561 1.95769 127.037 1.97816 127.494C1.99862 127.888 1.5416 128.324 1.08458 128.344C0.542302 128.365 0.0443568 128.031 0.00342985 127.616C-0.0374972 127.075 0.439985 126.578 0.961804 126.558L0.958393 126.561Z" fill="#26C3EA"/>
<path d="M6.80758 137.503C6.78712 137.856 6.84851 138.19 6.74619 138.459C6.53815 139.02 5.74689 139.187 5.16368 138.772C3.83355 137.795 3.00137 136.55 3.10369 134.807C3.22647 132.959 3.70736 131.217 4.45428 129.556C5.32739 127.582 6.32669 125.693 7.24073 123.743C7.69775 122.746 8.09337 121.708 8.07291 120.588C8.07291 120.319 7.92625 119.88 7.78301 119.84C7.53404 119.778 7.17934 119.921 6.93036 120.108C6.49381 120.442 6.18004 120.898 6.09818 121.477C6.07772 121.664 5.99586 121.851 5.93106 122.038C5.82534 122.327 5.76395 122.681 5.34785 122.6C4.97269 122.518 4.61799 122.474 4.49521 121.895C4.05865 119.921 6.61659 117.699 8.78231 118.614C9.40645 118.863 9.78161 119.322 9.98966 119.942C10.3239 120.898 10.3 121.895 9.96919 122.828C9.40645 124.281 8.80277 125.734 8.11725 127.126C7.18275 129.056 6.18345 130.948 5.68209 133.044C5.45358 134.021 5.34785 135.039 5.266 136.032C5.24554 136.366 5.38878 136.72 5.5559 137.009C5.93106 137.673 6.01292 137.693 6.80417 137.506L6.80758 137.503Z" fill="#26C3EA"/>
<path d="M25.5521 123.883C25.5112 124.237 25.385 124.587 25.3031 124.941C25.0132 126.105 24.7199 127.266 24.2629 128.389C23.8263 129.447 23.1613 130.713 22.0358 131.213C20.8694 131.754 19.2493 131.567 18.2296 130.778C17.2098 129.988 16.7323 128.909 16.3572 127.749C16.231 127.354 16.1491 126.959 16.0229 126.398C15.5864 126.711 15.2726 126.959 14.9418 127.167C14.1096 127.728 13.2774 128.246 12.36 128.62C11.4255 129.035 10.3852 129.512 9.52918 128.681C9.13356 128.307 9.44733 127.623 9.6315 127.208C10.4637 125.152 11.3163 123.117 12.169 121.061C12.7931 119.567 13.3968 118.053 14.0823 116.576C15.2692 113.959 18.0556 108.085 21.8209 110.95C22.2166 111.263 22.6531 111.679 22.6736 112.424C22.6736 112.88 21.8005 112.049 21.4253 111.842C20.1361 111.093 19.0959 111.593 18.3251 112.57C17.5747 113.503 16.8892 114.524 16.4117 115.602C14.9759 118.924 13.6253 122.287 12.2508 125.652C12.0632 126.088 11.9405 126.544 11.7938 126.98C11.8961 127.02 11.92 127.041 11.92 127.041C13.5639 126.377 14.9384 125.172 15.3749 124.488C15.7296 123.906 15.4772 122.266 15.6648 121.228C15.9786 119.608 16.6437 118.073 17.7453 116.824C18.4103 116.076 19.4506 115.994 20.3032 116.12C20.9887 116.242 21.2821 116.95 21.3434 117.553C21.4253 118.301 21.3844 119.111 21.1968 119.857C20.6988 121.745 19.4062 123.158 18.0147 124.444C17.5577 124.859 17.4315 125.295 17.5782 125.877C17.9124 127.184 18.2023 128.494 19.1607 129.508C19.8257 130.237 20.8455 130.298 21.5344 129.59C22.4928 128.613 22.8032 127.347 23.1374 126.081C23.4068 124.982 23.6558 123.859 23.9696 122.76C23.9901 122.613 24.0719 122.467 24.1572 122.344C24.2186 122.263 24.3243 122.198 24.4266 122.157C24.5323 122.116 24.6347 122.137 24.7404 122.157C25.0098 122.178 25.2622 122.239 25.4054 122.491C25.4464 122.552 25.4668 122.637 25.4873 122.698C25.6135 123.073 25.6135 123.508 25.5487 123.883H25.5521ZM17.4179 122.511C18.9799 121.163 19.8939 118.897 19.2698 117.798C18.0625 119.125 17.5645 120.684 17.4179 122.511Z" fill="#26C3EA"/>
<path d="M39.8903 126.915C39.556 127.436 39.0376 127.684 38.4749 127.827C37.745 128.014 37.2675 127.514 36.7491 127.143C36.5001 126.956 36.3126 126.687 36.1045 126.435C35.9783 126.289 35.7907 125.999 35.5827 126.061C35.4804 126.081 35.3951 126.187 35.3133 126.248C35.1871 126.33 35.0643 126.435 34.9586 126.561C34.6039 126.871 34.2526 127.184 33.8569 127.453C33.5466 127.701 33.2123 127.973 32.8372 128.161C32.5473 128.327 32.3154 128.45 31.9845 128.409C31.6946 128.409 31.3604 128.14 31.1523 127.994C31.9436 127.061 32.7349 126.085 33.6694 125.295C33.9593 125.047 34.2935 124.819 34.6277 124.652C34.9176 124.485 35.2314 124.277 35.5861 124.339C35.876 124.38 36.0431 124.608 36.2512 124.819C36.4387 125.006 36.5615 125.234 36.7491 125.441C37.3732 126.085 37.8303 126.085 38.4135 125.36C38.9967 124.652 39.1843 123.801 39.2457 122.868C39.2047 122.62 39.1843 122.327 39.1195 122.058C38.8091 120.731 37.8712 120.377 36.7491 121.146C36.3126 121.439 35.9374 121.834 35.668 122.266C35.3781 122.702 35.2109 123.199 34.9176 123.638C34.8562 123.719 34.7914 123.804 34.7096 123.845C34.6482 123.886 34.5834 123.906 34.522 123.927C34.1673 123.988 33.7103 123.866 33.608 123.491C33.5261 123.158 33.5056 122.783 33.5466 122.433C33.6728 121.643 34.1502 120.98 34.6891 120.439C35.5622 119.526 36.6434 119.087 37.8917 119.213C39.0376 119.319 39.7845 120.023 40.3064 121C41.3875 123.056 41.0976 125.006 39.8903 126.918V126.915Z" fill="#26C3EA"/>
<path d="M44.2796 126.333C44.2591 125.605 43.5941 124.9 42.8847 124.757C42.5095 124.696 42.0115 123.699 42.2196 123.386C42.3014 123.28 42.5095 123.219 42.6561 123.219C44.1125 123.178 45.2141 122.45 45.7154 121.286C45.903 120.83 45.903 120.561 45.8621 120.248C45.7802 119.251 44.7809 118.836 43.9897 118.836C43.5327 118.836 43.1575 118.917 42.929 119.145C42.7619 119.332 42.68 119.414 42.6186 119.394C42.2435 119.207 41.8478 118.853 41.766 118.356C41.6193 117.692 41.7865 117.444 42.4515 117.256C43.826 116.821 45.3846 116.964 46.4248 117.798C48.3996 119.397 48.3177 121.95 45.8416 123.818C45.238 124.274 45.2175 124.254 45.5927 124.815C46.6124 126.33 45.8826 128.678 44.0306 129.736C42.1377 130.815 40.3676 130.876 39.058 130.836C37.8916 130.795 36.8957 130.42 37.3936 129.923C37.6221 129.695 38.4952 129.549 38.7237 129.488C41.2817 128.739 41.326 128.865 42.946 128.035C43.5497 127.745 44.3205 127.123 44.2762 126.333H44.2796Z" fill="#26C3EA"/>
<path d="M46.6534 134.14C45.9474 133.851 46.7796 132.854 47.2366 132.251C47.6322 131.734 48.2359 130.155 48.6725 128.807L49.7741 124.778C49.9412 124.237 50.1493 123.678 50.3778 123.158C50.5653 122.702 51.2099 122.45 51.7318 122.596C52.1888 122.743 52.4616 123.178 52.3354 123.76C51.9807 125.234 51.5646 126.854 51.4009 127.391L50.4221 130.237C50.0469 131.213 48.5702 133.538 47.3423 134.035C46.9263 134.222 46.6568 134.14 46.6568 134.14H46.6534ZM54.5796 126.064C54.392 126.064 54.2044 126.003 53.9759 125.897C53.6656 125.751 53.4984 125.629 53.4336 125.503C53.3927 125.421 53.3723 125.336 53.3723 125.275V125.213C53.3927 125.152 53.4984 124.985 53.686 124.778C53.8941 124.55 54.1226 124.237 54.4364 123.821C54.6444 123.508 54.7467 123.178 54.7467 122.845C54.7467 122.719 54.7263 122.596 54.7058 122.47C54.6035 121.994 54.3716 121.64 54.0203 121.432C53.686 121.225 53.2495 121.14 52.7311 121.14H52.5435C51.9398 121.16 51.4419 121.245 51.0667 121.388C50.6915 121.534 50.4426 121.677 50.2959 121.844C50.1493 121.99 50.0265 122.133 49.9207 122.3C49.7127 122.634 49.5047 122.777 49.2966 122.777C49.109 122.777 48.9214 122.651 48.7134 122.361C48.5872 122.174 48.5258 121.946 48.5258 121.718C48.5258 121.47 48.5872 121.242 48.7339 121.034C49.1704 120.411 49.815 119.976 50.6063 119.727C51.1042 119.56 51.6465 119.499 52.2092 119.499C52.5196 119.499 52.8334 119.52 53.1676 119.56C54.0817 119.707 54.832 120.061 55.4561 120.66C56.0598 121.262 56.4554 122.113 56.6225 123.192L56.6635 123.648C56.6635 124.209 56.4964 124.686 56.2065 125.101C55.8108 125.598 55.3333 125.911 54.7501 126.034L54.583 126.054L54.5796 126.064Z" fill="#26C3EA"/>
<path d="M64.7533 126.915C64.4191 127.436 63.9006 127.684 63.3379 127.827C62.608 128.014 62.1306 127.514 61.6121 127.143C61.3632 126.956 61.1756 126.687 60.9675 126.435C60.8414 126.289 60.6538 125.999 60.4457 126.061C60.3434 126.081 60.2581 126.187 60.1763 126.248C60.0501 126.33 59.9273 126.435 59.8216 126.561C59.4669 126.871 59.1156 127.184 58.72 127.453C58.4096 127.701 58.0754 127.973 57.7002 128.161C57.4103 128.327 57.1784 128.45 56.8476 128.409C56.5577 128.409 56.2234 128.14 56.0154 127.994C56.8066 127.061 57.5979 126.085 58.5324 125.295C58.8223 125.047 59.1565 124.819 59.4908 124.652C59.7807 124.485 60.0944 124.277 60.4491 124.339C60.739 124.38 60.9062 124.608 61.1142 124.819C61.3018 125.006 61.428 125.234 61.6121 125.441C62.2363 126.085 62.6933 126.085 63.2765 125.36C63.8597 124.652 64.0473 123.801 64.1087 122.868C64.0678 122.62 64.0473 122.327 63.9825 122.058C63.6721 120.731 62.7342 120.377 61.6121 121.146C61.1756 121.439 60.8004 121.834 60.531 122.266C60.2411 122.702 60.074 123.199 59.7807 123.638C59.7193 123.719 59.6545 123.804 59.5726 123.845C59.5112 123.886 59.4464 123.906 59.385 123.927C59.0303 123.988 58.5733 123.866 58.471 123.491C58.3891 123.158 58.3687 122.783 58.4096 122.433C58.5358 121.643 59.0133 120.98 59.5522 120.439C60.4253 119.526 61.5064 119.087 62.7581 119.213C63.9006 119.319 64.651 120.023 65.1728 121C66.2539 123.056 65.964 125.006 64.7567 126.918L64.7533 126.915Z" fill="#26C3EA"/>
<path d="M80.2545 126.915C79.9202 127.436 79.4018 127.684 78.8391 127.827C78.1092 128.014 77.6317 127.514 77.1133 127.143C76.8643 126.956 76.6768 126.687 76.4687 126.435C76.3425 126.289 76.1549 125.999 75.9469 126.061C75.8446 126.081 75.7593 126.187 75.6775 126.248C75.5513 126.33 75.4285 126.435 75.3228 126.561C74.9681 126.871 74.6133 127.184 74.2211 127.453C73.9108 127.701 73.5765 127.973 73.2014 128.161C72.9115 128.327 72.6796 128.45 72.3487 128.409C72.0588 128.409 71.7246 128.14 71.5165 127.994C72.3078 127.061 73.0956 126.085 74.0336 125.295C74.3235 125.047 74.6577 124.819 74.9919 124.652C75.2818 124.485 75.5956 124.277 75.9503 124.339C76.2436 124.38 76.4073 124.608 76.6154 124.819C76.8029 125.006 76.9291 125.234 77.1167 125.441C77.7409 126.085 78.1979 126.085 78.7811 125.36C79.3643 124.652 79.5519 123.801 79.6133 122.868C79.5723 122.62 79.5519 122.327 79.4871 122.058C79.1767 120.731 78.2388 120.377 77.1167 121.146C76.6802 121.439 76.305 121.834 76.0356 122.266C75.7423 122.702 75.5785 123.199 75.2852 123.638C75.2238 123.719 75.159 123.804 75.0772 123.845C75.0158 123.886 74.951 123.906 74.8896 123.927C74.5349 123.988 74.0779 123.866 73.9756 123.491C73.8903 123.158 73.8698 122.783 73.9142 122.433C74.0404 121.643 74.5179 120.98 75.0567 120.439C75.9298 119.526 77.011 119.087 78.2593 119.213C79.4018 119.319 80.1521 120.023 80.674 121C81.7551 123.056 81.4652 125.006 80.2579 126.918L80.2545 126.915Z" fill="#26C3EA"/>
<path d="M82.7339 126.956C82.5668 126.956 82.3997 126.871 82.2564 126.728C82.1098 126.541 82.0484 126.313 82.0484 126.064C82.0484 125.918 82.0689 125.754 82.1337 125.567C82.2599 125.091 82.444 124.635 82.6759 124.175C82.8226 123.862 82.9249 123.593 83.0102 123.365C83.1978 122.865 83.3001 122.368 83.3001 121.851C83.3001 121.582 83.2592 121.289 83.2182 121.02L83.1978 120.854C83.1978 120.748 83.2182 120.687 83.2592 120.626C83.341 120.544 83.4263 120.459 83.5286 120.418L83.6104 120.357C83.839 120.211 84.0265 120.149 84.2141 120.149C84.3608 120.149 84.504 120.19 84.6302 120.275C84.9235 120.483 85.1077 120.816 85.193 121.293C85.2339 121.562 85.2748 121.834 85.2748 122.123L85.2543 122.477C85.2339 123.185 85.0668 123.971 84.7973 124.802C84.504 125.652 84.1084 126.275 83.5491 126.67C83.341 126.816 83.1125 126.898 82.8635 126.939L82.7373 126.959L82.7339 126.956Z" fill="#26C3EA"/>
<path d="M86.9563 125.169C86.6868 124.277 86.5402 123.362 86.5402 122.429C86.5402 121.64 86.622 120.83 86.7891 120C86.9563 119.169 87.2666 118.277 87.7475 117.342C88.3103 116.263 89.0162 115.432 89.8484 114.83C90.6806 114.228 91.5333 113.833 92.3654 113.669C92.6349 113.608 92.9077 113.584 93.1567 113.584C93.6546 113.584 94.0912 113.69 94.4459 113.918C94.8006 114.146 95.0086 114.374 95.0905 114.622L95.1314 114.935L95.0905 115.249C95.0496 115.456 94.9643 115.579 94.8211 115.602L94.6949 115.623C94.5687 115.623 94.4254 115.582 94.2378 115.497C94.0093 115.371 93.716 115.31 93.4057 115.31C93.1976 115.31 92.9691 115.351 92.7201 115.395C92.096 115.541 91.4923 115.851 90.9296 116.307C90.3464 116.787 89.8484 117.406 89.4323 118.216C89.1186 118.819 88.8696 119.441 88.7025 120.105C88.5558 120.769 88.474 121.432 88.474 122.076C88.474 122.409 88.4944 122.739 88.5353 123.073C88.6411 124.049 88.8287 124.774 89.0572 125.234C89.1834 125.462 89.3061 125.629 89.4528 125.754C89.5995 125.88 89.7427 125.962 89.8689 126.023C89.9098 126.044 89.9507 126.044 89.9746 126.064C90.0565 126.085 90.1417 126.105 90.2031 126.105L90.3498 126.125C90.6192 126.105 90.8307 126.044 91.0148 125.938C91.2024 125.836 91.3491 125.71 91.4719 125.584C91.5776 125.482 91.6799 125.397 91.7856 125.336C91.8675 125.275 91.9528 125.254 92.0755 125.254C92.2836 125.254 92.4302 125.315 92.5769 125.588C92.6383 125.669 92.6587 125.775 92.6587 125.901C92.6587 126.068 92.6178 126.255 92.5121 126.462C92.3245 126.898 92.0107 127.252 91.6185 127.521C91.2229 127.79 90.8682 127.956 90.5374 127.977L90.2475 127.997C88.7093 127.997 87.6247 127.041 86.9597 125.172L86.9563 125.169Z" fill="#26C3EA"/>
<path d="M103.788 120.935C105.015 120.439 105.994 120.52 107.137 121.269C108.095 121.892 108.532 123.117 108.051 124.277C107.529 125.523 106.929 126.52 105.909 126.687C105.431 126.769 105.199 126.748 104.951 126.646C104.596 126.5 104.702 126.19 104.783 126.023C105.077 125.401 105.387 124.859 105.616 124.342C105.803 123.886 105.926 123.471 105.97 123.056C106.011 122.474 105.534 122.123 104.783 122.246C103.784 122.392 103.099 123.117 102.952 123.927C102.556 126.418 101.932 128.828 100.643 130.904C99.9779 131.982 99.2276 132.646 98.085 132.792C97.1062 132.895 96.4002 132.544 95.6294 131.901C95.2338 131.588 94.7972 130.989 94.6506 130.199C94.5448 129.764 94.7767 129.202 95.0257 128.872C95.2338 128.562 96.0864 128.811 96.0046 129.515C95.9432 130.056 95.9841 130.553 96.3388 131.03C96.6935 131.571 97.5052 131.298 98.0645 130.761C99.3947 129.454 99.8551 127.834 100.353 126.296C100.541 125.652 100.769 125.05 100.708 124.468C100.646 123.804 100.854 123.284 101.062 122.807C101.417 121.956 103.184 121.187 103.788 120.939V120.935Z" fill="#26C3EA"/>
<path d="M118.044 127.807C117.733 127.807 117.42 127.766 117.109 127.66C116.403 127.432 115.82 127.037 115.404 126.456C114.967 125.874 114.613 125.19 114.364 124.359H114.029C113.344 124.274 112.72 124.046 112.157 123.672C112.157 123.651 112.137 123.651 112.116 123.651C112.096 123.631 112.034 123.59 111.969 123.57L111.908 123.529V123.716C111.888 123.821 111.867 123.964 111.826 124.111L111.659 124.754C111.533 125.169 111.325 125.523 111.015 125.833C110.534 126.207 110.015 126.374 109.452 126.374L109.098 126.353V126.268C109.098 126.166 109.139 126.04 109.2 125.914C109.285 125.768 109.388 125.646 109.493 125.52L109.661 125.312C109.93 124.897 110.097 124.441 110.141 123.964L110.162 123.362C110.162 122.76 110.1 122.137 109.954 121.555C109.933 121.408 109.913 121.266 109.869 121.099L109.848 120.952L109.869 120.806C109.91 120.704 110.015 120.598 110.162 120.537C110.329 120.456 110.496 120.411 110.684 120.37L110.912 120.35L111.1 120.37C111.246 120.432 111.369 120.496 111.495 120.619C111.598 120.724 111.703 120.847 111.785 120.973C111.826 120.993 111.847 121.034 111.867 121.075C111.993 121.221 112.116 121.388 112.222 121.551C112.471 121.905 112.764 122.239 113.075 122.528C113.364 122.821 113.76 122.964 114.238 122.984L114.217 122.276L114.238 121.592C114.258 121.136 114.319 120.721 114.425 120.285C114.527 119.87 114.592 119.601 114.633 119.496C115.111 118.209 116.008 117.253 117.276 116.63L117.358 116.589C117.962 116.341 118.501 116.215 118.982 116.215C119.357 116.215 119.691 116.276 120.001 116.443C120.687 116.797 121.103 117.44 121.25 118.373L121.27 118.829C121.27 119.305 121.185 119.806 121.021 120.343C120.793 121.031 120.418 121.756 119.855 122.484C119.312 123.233 118.525 123.832 117.525 124.311C117.15 124.458 116.755 124.56 116.362 124.58C116.321 124.58 116.257 124.58 116.216 124.601L116.362 125.016L116.591 125.492C117.027 126.074 117.484 126.343 117.986 126.343H118.047C118.235 126.343 118.463 126.217 118.797 125.989C119.108 125.761 119.401 125.387 119.671 124.89C119.879 124.495 120.128 124.288 120.421 124.288L120.67 124.328C120.98 124.434 121.147 124.642 121.147 124.972C121.147 125.118 121.106 125.305 121.042 125.513C120.687 126.51 120.148 127.194 119.377 127.507C118.92 127.694 118.484 127.8 118.047 127.8L118.044 127.807ZM116.045 123.26C116.151 123.26 116.294 123.239 116.482 123.178C116.751 123.117 117.085 122.95 117.44 122.702C117.795 122.453 118.129 122.079 118.439 121.558C118.753 121.061 118.961 120.561 119.064 120.085C119.104 119.836 119.125 119.608 119.125 119.401C119.125 119.173 119.104 118.985 119.064 118.798C118.978 118.424 118.835 118.175 118.583 118.009C118.436 117.927 118.293 117.907 118.126 117.907C117.979 117.907 117.832 117.927 117.669 118.009C117.355 118.155 117.044 118.424 116.734 118.839C116.42 119.254 116.171 119.816 116.004 120.52C115.898 120.895 115.837 121.351 115.817 121.827L115.796 122.222C115.796 122.576 115.837 122.93 115.898 123.239L116.045 123.26Z" fill="#26C3EA"/>
<path d="M123.078 117.239C122.348 116.947 122.307 116.783 122.392 116.47C122.539 115.994 123.432 115.66 124.367 116.035C125.554 116.515 126.301 117.239 126.676 117.634L127.757 116.865C130.564 114.871 133.48 114.663 134.063 115.163C134.292 115.371 134.333 115.599 134.166 115.871C134.043 116.059 133.313 115.912 131.359 116.64C129.36 117.389 128.197 118.427 127.904 118.716C127.716 118.904 127.737 119.132 127.842 119.339C128.593 120.792 128.842 122.766 128.78 124.509C128.739 125.836 128.466 127.228 127.866 128.412C127.177 129.845 126.055 131.506 124.497 131.152C121.959 130.57 121.042 126.21 123.31 121.684C124.019 120.316 124.619 119.69 125.141 119.006C125.1 118.737 124.497 117.821 123.081 117.243L123.078 117.239ZM126.178 120.684C125.721 121.163 124.285 123.61 124.016 126.081C123.889 127.286 124.183 129.61 124.994 129.798C125.37 129.9 126.243 128.137 126.512 127.017C126.7 126.166 126.887 125.251 126.887 124.567C126.867 123.113 126.659 121.701 126.178 120.684Z" fill="#26C3EA"/>
<path d="M158.51 107.897C158.531 107.584 158.343 107.336 158.074 107.213C157.907 107.152 157.719 107.108 157.572 107.006C157.426 106.904 157.303 106.757 157.262 106.57C157.221 106.403 157.242 106.135 157.364 106.009C157.634 105.801 158.197 105.988 158.466 106.07C159.4 106.298 160.608 107.087 160.673 108.146C160.693 108.687 160.424 109.123 160.069 109.494C159.527 110.076 158.551 110.324 157.801 110.47C156.491 110.76 155.158 110.617 153.848 110.385C153.493 110.324 153.142 110.259 152.787 110.178C152.269 110.076 151.747 109.95 151.229 109.844C150.874 109.762 150.499 109.677 150.148 109.575C149.834 109.494 149.67 109.575 149.626 109.929C149.438 111.964 148.023 113.768 146.236 114.663C145.55 115.017 144.779 115.184 143.988 115.204C143.238 115.245 142.262 114.976 141.802 114.313C140.284 112.09 142.842 109.705 144.674 108.728C145.257 108.418 145.816 108.251 146.461 108.105C146.877 108.023 146.918 107.857 146.795 107.503C146.42 106.403 145.673 105.862 144.506 105.842C142.593 105.801 140.97 106.526 139.575 107.792C137.474 109.701 136.14 112.131 135.185 114.748C134.561 116.515 134.063 118.318 133.582 120.125C133.105 121.994 132.75 123.903 132.314 125.792C132.167 126.435 131.751 128.348 130.878 128.348C130.421 128.348 130.005 128.079 129.735 127.705C129.421 127.248 129.258 126.564 129.445 126.023C129.548 125.754 129.756 125.588 129.923 125.36C130.131 125.091 130.213 124.859 130.298 124.509C132.109 116.225 133.627 113.213 133.627 113.213C134.5 111.199 135.56 109.228 137.163 107.69C139.513 105.447 142.177 103.953 145.588 104.45C147.232 104.698 148.439 105.549 149.104 107.047C149.21 107.316 149.353 107.567 149.561 107.755C149.81 107.983 150.059 108.023 150.373 108.088C151.682 108.357 152.975 108.65 154.264 108.878C154.701 108.939 155.158 109.044 155.615 109.065C156.406 109.106 157.279 109.085 157.988 108.65C158.176 108.524 158.364 108.36 158.446 108.153C158.486 108.068 158.507 107.986 158.507 107.904L158.51 107.897ZM147.027 109.538C146.986 109.517 146.945 109.497 146.901 109.497C146.819 109.497 146.713 109.517 146.631 109.517C145.069 109.725 143.47 111.011 143.343 112.757C143.323 113.026 143.384 113.339 143.592 113.506C143.76 113.652 143.988 113.673 144.196 113.652C145.526 113.445 146.611 111.951 146.962 110.644C146.983 110.518 147.129 109.565 147.023 109.545L147.027 109.538Z" fill="#26C3EA"/>
<path d="M148.258 37.7457C146.225 33.5869 142.296 29.7106 137.689 27.0492C137.467 26.9233 137.269 26.8246 137.092 26.8961C136.993 26.9437 136.914 27.1173 136.768 27.1684C136.519 27.267 136.195 27.0901 136.048 26.8893C135.53 26.2665 135.837 25.3238 136.461 24.9562C137.109 24.6125 137.955 24.6669 138.674 24.8984C139.319 25.1026 139.94 25.4293 140.533 25.7798C144.52 28.1145 147.927 31.5654 149.943 35.2511C149.974 34.533 150.055 33.4168 150.137 32.3515C150.165 31.8308 150.219 31.2353 150.547 30.8167C150.874 30.347 151.597 30.1292 152.115 30.4559C152.436 30.6805 152.709 31.0072 153.006 30.9085C153.251 31.157 153.227 31.4803 153.149 31.7049C153.046 31.9023 152.92 32.0759 152.798 32.2494C152.647 32.5455 152.644 32.8927 152.665 33.267C152.634 34.0838 152.627 34.9278 152.624 35.7718C152.593 36.6907 152.586 37.5824 152.579 38.4774C152.552 38.8994 152.576 39.3214 152.596 39.7435C152.596 40.1416 152.392 40.5364 152.242 40.8325C152.167 40.955 152.115 41.0537 152.017 41.1524C151.941 41.2749 151.815 41.3498 151.74 41.4247C151.59 41.5234 151.464 41.6459 151.266 41.6935C150.669 41.7888 150.049 41.5608 149.503 41.309C148.388 40.8291 147.324 40.1995 146.358 39.4269C145.171 38.4264 144.036 37.225 142.596 37.0174C142.347 36.9664 142.047 36.963 141.826 36.7894C141.553 36.5648 141.532 36.1428 141.659 35.8705C141.833 35.5983 142.133 35.4519 142.433 35.3532C143.354 35.1354 144.397 35.4894 145.287 35.8943C146.157 36.3232 146.996 36.8234 147.764 37.402C147.764 37.402 148.357 37.8512 148.258 37.7525V37.7457Z" fill="#E3AC77"/>
<path d="M21.6914 31.0243C17.2405 32.3209 12.7488 35.5302 9.34163 39.6107C9.18133 39.8081 9.04832 39.9851 9.08925 40.1723C9.11994 40.2778 9.27683 40.3833 9.30071 40.5364C9.35527 40.7985 9.12677 41.0843 8.90508 41.1967C8.2025 41.5982 7.32257 41.1422 7.06677 40.465C6.83826 39.7707 7.03608 38.9471 7.38396 38.2766C7.69432 37.6777 8.12064 37.1229 8.56743 36.5988C11.5483 33.0696 15.5318 30.3028 19.512 28.9449C18.806 28.7951 17.718 28.5263 16.6778 28.2642C16.1696 28.1485 15.5898 27.9953 15.2283 27.604C14.819 27.2058 14.7269 26.4571 15.1362 25.9976C15.4125 25.7186 15.7808 25.5076 15.7331 25.1979C16.023 24.9971 16.3367 25.0787 16.5414 25.191C16.7187 25.3238 16.8688 25.4769 17.0189 25.6301C17.2883 25.8309 17.6293 25.8921 18.0011 25.933C18.8026 26.1031 19.6348 26.2495 20.4704 26.3992C21.3708 26.5864 22.2541 26.7429 23.134 26.8995C23.5467 26.9982 23.9662 27.0458 24.3857 27.0969C24.7779 27.1649 25.1326 27.4304 25.4021 27.6312C25.5112 27.7265 25.5999 27.7946 25.6817 27.9069C25.7909 28.0022 25.842 28.1383 25.9034 28.2234C25.975 28.3867 26.0774 28.5297 26.091 28.7339C26.0842 29.3362 25.7534 29.908 25.4123 30.4015C24.7506 31.419 23.9492 32.3583 23.0215 33.1751C21.8312 34.1723 20.4567 35.0878 20.0065 36.4695C19.9144 36.7043 19.8599 37.0004 19.6484 37.1876C19.379 37.419 18.9595 37.368 18.7139 37.1978C18.4752 36.98 18.3797 36.6601 18.3353 36.3504C18.2774 35.4077 18.8026 34.4412 19.3517 33.6346C19.9213 32.8518 20.559 32.1099 21.2582 31.4531C21.2582 31.4531 21.8039 30.946 21.6879 31.0243H21.6914Z" fill="#E3AC77"/>
</g>
<defs>
<clipPath id="clip0_1_894">
<rect width="161" height="139" fill="white"/>
</clipPath>
</defs>
</svg>